HIERARCHY
ROOT Hips
{
	OFFSET 0.000000 0.000000 0.000000
	CHANNELS 6 Xposition Yposition Zposition Zrotation Yrotation Xrotation 
	JOINT LHipJoint
	{
		OFFSET 0.000000 0.000000 0.000000
		CHANNELS 3 Zrotation Yrotation Xrotation
		JOINT LeftUpLeg
		{
			OFFSET 1.363060 -1.794630 0.839290
			CHANNELS 3 Zrotation Yrotation Xrotation
			JOINT LeftLeg
			{
				OFFSET 2.448110 -6.726130 0.000000
				CHANNELS 3 Zrotation Yrotation Xrotation
				JOINT LeftFoot
				{
					OFFSET 2.562200 -7.039590 0.000000
					CHANNELS 3 Zrotation Yrotation Xrotation
					JOINT LeftToeBase
					{
						OFFSET 0.157640 -0.433110 2.322550
						CHANNELS 3 Zrotation Yrotation Xrotation
						End Site
						{
							OFFSET 0.000000 0.000000 0.000000
						}
					}
				}
			}
		}
	}
	JOINT RHipJoint
	{
		OFFSET 0.000000 0.000000 0.000000
		CHANNELS 3 Zrotation Yrotation Xrotation
		JOINT RightUpLeg
		{
			OFFSET -1.305520 -1.794630 0.839290
			CHANNELS 3 Zrotation Yrotation Xrotation
			JOINT RightLeg
			{
				OFFSET -2.542530 -6.985550 0.000000
				CHANNELS 3 Zrotation Yrotation Xrotation
				JOINT RightFoot
				{
					OFFSET -2.568260 -7.056230 0.000000
					CHANNELS 3 Zrotation Yrotation Xrotation
					JOINT RightToeBase
					{
						OFFSET -0.164730 -0.452590 2.363150
						CHANNELS 3 Zrotation Yrotation Xrotation
						End Site
						{
							OFFSET 0.000000 0.000000 0.000000
						}
					}
				}
			}
		}
	}
	JOINT LowerBack
	{
		OFFSET 0.000000 0.000000 0.000000
		CHANNELS 3 Zrotation Yrotation Xrotation
		JOINT Spine
		{
			OFFSET 0.028270 2.035590 -0.193380
			CHANNELS 3 Zrotation Yrotation Xrotation
			JOINT Spine1
			{
				OFFSET 0.056720 2.048850 -0.042750
				CHANNELS 3 Zrotation Yrotation Xrotation
				JOINT Neck
				{
					OFFSET 0.000000 0.000000 0.000000
					CHANNELS 3 Zrotation Yrotation Xrotation
					JOINT Neck1
					{
						OFFSET -0.054170 1.746240 0.172020
						CHANNELS 3 Zrotation Yrotation Xrotation
						JOINT Head
						{
							OFFSET 0.104070 1.761360 -0.123970
							CHANNELS 3 Zrotation Yrotation Xrotation
							End Site
							{
								OFFSET 0.000000 0.000000 0.000000
							}
						}
					}
				}
				JOINT LeftShoulder
				{
					OFFSET 0.000000 0.000000 0.000000
					CHANNELS 3 Zrotation Yrotation Xrotation
					JOINT LeftArm
					{
						OFFSET 3.362410 1.200890 -0.311210
						CHANNELS 3 Zrotation Yrotation Xrotation
						JOINT LeftForeArm
						{
							OFFSET 4.983000 -0.000000 -0.000000
							CHANNELS 3 Zrotation Yrotation Xrotation
							JOINT LeftHand
							{
								OFFSET 3.483560 -0.000000 -0.000000
								CHANNELS 3 Zrotation Yrotation Xrotation
								JOINT LeftFingerBase
								{
									OFFSET 0.000000 0.000000 0.000000
									CHANNELS 3 Zrotation Yrotation Xrotation
									JOINT LeftHandIndex1
									{
										OFFSET 0.715260 -0.000000 -0.000000
										CHANNELS 3 Zrotation Yrotation Xrotation
										End Site
										{
											OFFSET 0.000000 0.000000 0.000000
										}
									}
								}
								JOINT LThumb
								{
									OFFSET 0.000000 0.000000 0.000000
									CHANNELS 3 Zrotation Yrotation Xrotation
									End Site
									{
										OFFSET 0.000000 0.000000 0.000000
									}
								}
							}
						}
					}
				}
				JOINT RightShoulder
				{
					OFFSET 0.000000 0.000000 0.000000
					CHANNELS 3 Zrotation Yrotation Xrotation
					JOINT RightArm
					{
						OFFSET -3.136600 1.374050 -0.404650
						CHANNELS 3 Zrotation Yrotation Xrotation
						JOINT RightForeArm
						{
							OFFSET -5.241900 -0.000000 -0.000000
							CHANNELS 3 Zrotation Yrotation Xrotation
							JOINT RightHand
							{
								OFFSET -3.444170 -0.000000 -0.000000
								CHANNELS 3 Zrotation Yrotation Xrotation
								JOINT RightFingerBase
								{
									OFFSET 0.000000 0.000000 0.000000
									CHANNELS 3 Zrotation Yrotation Xrotation
									JOINT RightHandIndex1
									{
										OFFSET -0.622530 -0.000000 -0.000000
										CHANNELS 3 Zrotation Yrotation Xrotation
										End Site
										{
											OFFSET 0.000000 0.000000 0.000000
										}
									}
								}
								JOINT RThumb
								{
									OFFSET 0.000000 0.000000 0.000000
									CHANNELS 3 Zrotation Yrotation Xrotation
									End Site
									{
										OFFSET 0.000000 0.000000 0.000000
									}
								}
							}
						}
					}
				}
			}
		}
	}
}
MOTION
Frames: 5
Frame Time: 0.008333
-0.571826 16.508039 -4.594974 1.265373 -12.562773 15.714411 10.500985 0.064977 -2.916864 -12.280416 -16.296075 -39.461986 -0.805415 12.864206 26.359236 -1.775050 15.763743 -11.383736 0.002200 0.304900 0.837700 -12.518503 -1.561753 -3.279803 30.093425 14.596009 -10.924578 -1.747557 -13.257695 37.356519 -1.621803 -6.437142 -28.626015 -0.104100 2.080100 -5.727100 2.053605 -1.916803 4.271733 1.142243 -2.452247 -4.769401 -5.714846 -1.218699 -1.754560 9.182565 9.716809 -17.586857 3.657526 11.351412 11.013205 -4.730400 6.369800 12.180000 10.620520 -9.223555 3.301722 -90.138844 16.787455 35.226823 104.028074 -53.067973 -64.745364 0.722588 1.843526 -5.669888 12.958321 12.483774 2.274900 -7.125000 0.000000 0.000000 -13.195300 40.567500 1.471300 -8.037086 12.017147 3.862979 81.215161 -8.326966 42.903829 -75.603664 56.844761 -35.027668 0.055239 -1.930725 -15.946255 -12.018945 -6.099587 0.854700 7.125000 0.000000 0.000000 12.349300 -34.046100 3.385200 
-0.602645 16.529056 -4.686993 1.339808 -12.174276 15.764886 10.495336 0.099256 -2.952814 -13.036739 -15.772791 -39.699560 -0.559765 13.359694 27.870348 -1.594580 14.641875 -11.071793 0.000000 0.003500 0.009600 -12.538063 -1.563346 -3.255167 30.232102 14.642586 -11.129011 -1.652250 -13.199594 37.021600 -1.560925 -6.682191 -28.569315 -0.071800 1.728500 -4.755900 2.022947 -1.910542 4.274484 1.146360 -2.447068 -4.770610 -5.610800 -1.217323 -1.705346 9.046879 9.598910 -17.706805 3.664817 11.209614 11.016533 -4.711900 6.294200 12.178600 10.701504 -9.236366 3.321796 -90.623233 16.860577 34.646559 101.696414 -53.613746 -62.066938 0.642741 2.022128 -6.713802 13.676976 13.184763 2.536900 -7.125000 0.000000 0.000000 -12.671500 41.152200 1.224600 -8.089062 12.003425 3.864351 81.454892 -8.363844 42.469853 -74.643656 56.842541 -34.283967 0.053401 -1.945158 -15.661225 -11.959519 -6.145707 0.856600 7.125000 0.000000 0.000000 12.399000 -34.074100 3.390700 
-0.631612 16.548876 -4.774439 1.416785 -11.834217 15.779290 10.486159 0.133960 -2.987201 -13.769821 -15.285633 -39.837576 -0.286191 13.853133 29.418936 -1.425415 13.563681 -10.869067 0.001800 -0.277600 -0.762600 -12.553480 -1.566157 -3.233373 30.344441 14.688673 -11.300682 -1.568479 -13.146714 36.724220 -1.506920 -6.876404 -28.492344 -0.047900 1.411900 -3.882800 1.993248 -1.890442 4.278693 1.146284 -2.422665 -4.767264 -5.521581 -1.206096 -1.643321 8.913819 9.479688 -17.811888 3.674849 11.066934 11.027588 -4.692200 6.220000 12.175300 10.781694 -9.242898 3.349897 -91.040430 16.891744 34.063323 99.296861 -54.173250 -59.365838 0.558191 2.200705 -7.745158 14.391540 13.897287 2.814300 -7.125000 0.000000 0.000000 -12.149000 41.749200 0.990400 -8.143809 11.983984 3.865824 81.682608 -8.390458 42.085771 -73.589689 56.825041 -33.471991 0.053980 -1.959719 -15.349253 -11.871569 -6.211448 0.860300 7.125000 0.000000 0.000000 12.472100 -34.119700 3.397400 
-0.658727 16.567606 -4.857855 1.491826 -11.536582 15.766322 10.473741 0.168907 -3.020249 -14.477024 -14.822735 -39.888020 0.013321 14.339471 30.992369 -1.267282 12.535853 -10.770933 0.007000 -0.541300 -1.487500 -12.564958 -1.570081 -3.213883 30.434883 14.730048 -11.450195 -1.495405 -13.100034 36.462927 -1.459385 -7.019875 -28.393107 -0.030900 1.135000 -3.120500 1.969510 -1.859661 4.279868 1.142633 -2.383539 -4.760599 -5.449202 -1.187218 -1.571501 8.787965 9.360838 -17.902104 3.688291 10.924387 11.046770 -4.671400 6.148300 12.171800 10.861674 -9.243151 3.386789 -91.399664 16.892984 33.463644 96.809624 -54.744220 -56.643598 0.478940 2.373517 -8.660056 15.095788 14.569926 3.093400 -7.125000 0.000000 0.000000 -11.627300 42.312000 0.782700 -8.201594 11.959503 3.866523 81.899023 -8.401425 41.760795 -72.440860 56.787254 -32.593722 0.056582 -1.975562 -15.026803 -11.769363 -6.295554 0.866300 7.125000 0.000000 0.000000 12.557700 -34.181100 3.402600 
-0.684318 16.585030 -4.937895 1.562368 -11.268592 15.738906 10.458883 0.203418 -3.051845 -15.153520 -14.382308 -39.868570 0.335592 14.814291 32.575631 -1.119336 11.562660 -10.762994 0.015000 -0.791500 -2.175300 -12.573107 -1.574456 -3.195804 30.507135 14.766208 -11.594691 -1.432131 -13.062178 36.238725 -1.417653 -7.117528 -28.274053 -0.019300 0.897300 -2.466400 1.954795 -1.823060 4.271755 1.136324 -2.336056 -4.752341 -5.393854 -1.164333 -1.493609 8.672300 9.243517 -17.979652 3.705995 10.782401 11.074346 -4.649200 6.079400 12.170000 10.942135 -9.237711 3.432710 -91.708356 16.872912 32.837949 94.203785 -55.321117 -53.890712 0.415482 2.535904 -9.366473 15.776529 15.152619 3.356900 -7.125000 0.000000 0.000000 -11.111500 42.793700 0.613100 -8.262751 11.931091 3.865469 82.105816 -8.392902 41.501549 -71.198594 56.723324 -31.652908 0.060063 -1.993800 -14.702504 -11.670015 -6.392239 0.874300 7.125000 0.000000 0.000000 12.642300 -34.252600 3.404000 
